<svg width="76" height="76" viewBox="0 0 76 76" fill="none" xmlns="http://www.w3.org/2000/svg">
<path d="M60.1668 25.3334C57.5279 25.3334 55.2849 24.4098 53.4377 22.5625C51.5904 20.7153 50.6668 18.4723 50.6668 15.8334C50.6668 13.1945 51.5904 10.9514 53.4377 9.10421C55.2849 7.25699 57.5279 6.33337 60.1668 6.33337C62.8057 6.33337 65.0488 7.25699 66.896 9.10421C68.7432 10.9514 69.6668 13.1945 69.6668 15.8334C69.6668 18.4723 68.7432 20.7153 66.896 22.5625C65.0488 24.4098 62.8057 25.3334 60.1668 25.3334ZM12.6668 63.3334C10.9252 63.3334 9.43419 62.7132 8.19391 61.473C6.95364 60.2327 6.3335 58.7417 6.3335 57V19C6.3335 17.2584 6.95364 15.7674 8.19391 14.5271C9.43419 13.2868 10.9252 12.6667 12.6668 12.6667H44.6502C44.4391 13.7223 44.3335 14.7778 44.3335 15.8334C44.3335 16.8889 44.4391 17.9445 44.6502 19C45.0196 20.6889 45.6266 22.2591 46.471 23.7105C47.3154 25.1618 48.3446 26.4417 49.5585 27.55L38.0002 34.8334L12.6668 19V25.3334L38.0002 41.1667L54.7043 30.7167C55.6016 31.0334 56.4988 31.2709 57.396 31.4292C58.2932 31.5875 59.2168 31.6667 60.1668 31.6667C61.8557 31.6667 63.5182 31.4028 65.1543 30.875C66.7904 30.3473 68.2946 29.5556 69.6668 28.5V57C69.6668 58.7417 69.0467 60.2327 67.8064 61.473C66.5661 62.7132 65.0752 63.3334 63.3335 63.3334H12.6668Z" fill="#01F0D0"/>
</svg>
